<?xml version="1.0" encoding="UTF-8" standalone="no"?>
<!-- Created with Inkscape (http://www.inkscape.org/) -->

<svg
   sodipodi:docname="bifurcationPitchforkNegative.svg"
   viewBox="0 0 290.9494 252.10187"
   height="252.10187"
   width="290.9494"
   id="svg9"
   version="1.1"
   inkscape:version="1.2 (dc2aedaf03, 2022-05-15)"
   xmlns:inkscape="http://www.inkscape.org/namespaces/inkscape"
   xmlns:sodipodi="http://sodipodi.sourceforge.net/DTD/sodipodi-0.dtd"
   xmlns="http://www.w3.org/2000/svg"
   xmlns:svg="http://www.w3.org/2000/svg">
  <defs
     id="defs13">
    <rect
       x="491.77396"
       y="326.05075"
       width="40.08189"
       height="50.102364"
       id="rect11244" />
    <rect
       x="536.48071"
       y="336.07123"
       width="420.85986"
       height="286.73969"
       id="rect11238" />
    <inkscape:perspective
       sodipodi:type="inkscape:persp3d"
       inkscape:vp_x="0 : 65.962128 : 1"
       inkscape:vp_y="0 : 1000 : 0"
       inkscape:vp_z="450.44061 : 65.962128 : 1"
       inkscape:persp3d-origin="225.22031 : 3.9155478 : 1"
       id="perspective11108" />
    <clipPath
       id="clip-0">
      <path
         clip-rule="nonzero"
         d="m 2,16 h 11 v 8.589844 H 2 Z m 0,0"
         id="path29" />
    </clipPath>
    <clipPath
       id="clipPath2143">
      <path
         clip-rule="nonzero"
         d="m 2,16 h 11 v 8.589844 H 2 Z m 0,0"
         id="path2141" />
    </clipPath>
    <clipPath
       id="clipPath8164">
      <path
         clip-rule="nonzero"
         d="M 0,0 H 7.980469 V 6.175781 H 0 Z m 0,0"
         id="path8" />
    </clipPath>
    <clipPath
       id="clipPath8920">
      <path
         clip-rule="nonzero"
         d="M 0,0 H 7.980469 V 6.175781 H 0 Z m 0,0"
         id="path8918" />
    </clipPath>
    <clipPath
       id="clipPath9475">
      <path
         clip-rule="nonzero"
         d="M 0,0 H 7.980469 V 6.175781 H 0 Z m 0,0"
         id="path9473" />
    </clipPath>
  </defs>
  <sodipodi:namedview
     id="namedview11"
     pagecolor="#ffffff"
     bordercolor="#999999"
     borderopacity="1"
     inkscape:showpageshadow="0"
     inkscape:pageopacity="0"
     inkscape:pagecheckerboard="0"
     inkscape:deskcolor="#d1d1d1"
     showgrid="false"
     inkscape:zoom="1.8347215"
     inkscape:cx="153.42928"
     inkscape:cy="135.4429"
     inkscape:window-width="1280"
     inkscape:window-height="698"
     inkscape:window-x="-6"
     inkscape:window-y="-6"
     inkscape:window-maximized="1"
     inkscape:current-layer="svg9">
    <inkscape:page
       x="0"
       y="0"
       id="page15"
       width="290.9494"
       height="252.10187" />
  </sodipodi:namedview>
  <g
     id="g8392"
     inkscape:groupmode="layer"
     inkscape:label="Page 1"
     transform="matrix(1.33333,0,0,1.33333,-75.891391,-58.706619)">
    <g
       inkscape:label=""
       transform="matrix(0.750002,0,0,0.750002,205.228,115.911)"
       id="g8390">
      <g
         clip-path="url(#clip-0)"
         id="g17"
         transform="matrix(1.33333,0,0,1.33333,-0.541667,0.2015)">
        <g
           fill="#000000"
           fill-opacity="1"
           id="g15">
          <g
             id="use13"
             transform="translate(0,6.177)">
            <path
               d="m 6.796875,-5.859375 c -0.453125,0.09375 -0.625,0.4375 -0.625,0.703125 0,0.34375 0.265625,0.46875 0.46875,0.46875 0.4375,0 0.734375,-0.375 0.734375,-0.765625 0,-0.59375 -0.6875,-0.875 -1.296875,-0.875 -0.875,0 -1.359375,0.859375 -1.484375,1.140625 C 4.265625,-6.265625 3.375,-6.328125 3.109375,-6.328125 1.65625,-6.328125 0.875,-4.453125 0.875,-4.125 0.875,-4.078125 0.9375,-4 1.03125,-4 1.140625,-4 1.171875,-4.09375 1.203125,-4.140625 1.6875,-5.734375 2.65625,-6.03125 3.0625,-6.03125 c 0.65625,0 0.78125,0.59375 0.78125,0.9375 0,0.3125 -0.078125,0.640625 -0.265625,1.328125 l -0.484375,1.96875 c -0.203125,0.859375 -0.625,1.65625 -1.390625,1.65625 -0.0625,0 -0.421875,0 -0.734375,-0.1875 0.515625,-0.109375 0.640625,-0.53125 0.640625,-0.703125 0,-0.28125 -0.21875,-0.453125 -0.484375,-0.453125 -0.34375,0 -0.71875,0.296875 -0.71875,0.75 0,0.609375 0.671875,0.875 1.28125,0.875 0.6875,0 1.1875,-0.546875 1.484375,-1.125 0.234375,0.84375 0.9375,1.125 1.46875,1.125 1.46875,0 2.25,-1.875 2.25,-2.1875 0,-0.078125 -0.0625,-0.140625 -0.15625,-0.140625 -0.125,0 -0.140625,0.078125 -0.171875,0.1875 -0.390625,1.265625 -1.234375,1.859375 -1.875,1.859375 -0.5,0 -0.765625,-0.375 -0.765625,-0.96875 0,-0.3125 0.046875,-0.546875 0.28125,-1.484375 l 0.5,-1.953125 C 4.921875,-5.40625 5.40625,-6.03125 6.0625,-6.03125 c 0.03125,0 0.4375,0 0.734375,0.171875 z m 0,0"
               id="path8385" />
          </g>
        </g>
      </g>
    </g>
    <g
       inkscape:label=""
       transform="matrix(0.750002,0,0,0.750002,205.228,115.911)"
       id="g9154">
      <g
         clip-path="url(#clip-0)"
         id="g9152"
         transform="matrix(1.33333,0,0,1.33333,-0.541667,0.2015)">
        <g
           fill="#000000"
           fill-opacity="1"
           id="g9150">
          <g
             id="g9148"
             transform="translate(0,6.177)">
            <path
               d="m 6.796875,-5.859375 c -0.453125,0.09375 -0.625,0.4375 -0.625,0.703125 0,0.34375 0.265625,0.46875 0.46875,0.46875 0.4375,0 0.734375,-0.375 0.734375,-0.765625 0,-0.59375 -0.6875,-0.875 -1.296875,-0.875 -0.875,0 -1.359375,0.859375 -1.484375,1.140625 C 4.265625,-6.265625 3.375,-6.328125 3.109375,-6.328125 1.65625,-6.328125 0.875,-4.453125 0.875,-4.125 0.875,-4.078125 0.9375,-4 1.03125,-4 1.140625,-4 1.171875,-4.09375 1.203125,-4.140625 1.6875,-5.734375 2.65625,-6.03125 3.0625,-6.03125 c 0.65625,0 0.78125,0.59375 0.78125,0.9375 0,0.3125 -0.078125,0.640625 -0.265625,1.328125 l -0.484375,1.96875 c -0.203125,0.859375 -0.625,1.65625 -1.390625,1.65625 -0.0625,0 -0.421875,0 -0.734375,-0.1875 0.515625,-0.109375 0.640625,-0.53125 0.640625,-0.703125 0,-0.28125 -0.21875,-0.453125 -0.484375,-0.453125 -0.34375,0 -0.71875,0.296875 -0.71875,0.75 0,0.609375 0.671875,0.875 1.28125,0.875 0.6875,0 1.1875,-0.546875 1.484375,-1.125 0.234375,0.84375 0.9375,1.125 1.46875,1.125 1.46875,0 2.25,-1.875 2.25,-2.1875 0,-0.078125 -0.0625,-0.140625 -0.15625,-0.140625 -0.125,0 -0.140625,0.078125 -0.171875,0.1875 -0.390625,1.265625 -1.234375,1.859375 -1.875,1.859375 -0.5,0 -0.765625,-0.375 -0.765625,-0.96875 0,-0.3125 0.046875,-0.546875 0.28125,-1.484375 l 0.5,-1.953125 C 4.921875,-5.40625 5.40625,-6.03125 6.0625,-6.03125 c 0.03125,0 0.4375,0 0.734375,0.171875 z m 0,0"
               id="path9146" />
          </g>
        </g>
      </g>
    </g>
    <g
       inkscape:label=""
       transform="matrix(0.750002,0,0,0.750002,205.228,115.911)"
       id="g9714">
      <g
         clip-path="url(#clip-0)"
         id="g9712"
         transform="matrix(1.33333,0,0,1.33333,-0.541667,0.2015)">
        <g
           fill="#000000"
           fill-opacity="1"
           id="g9710">
          <g
             id="g9708"
             transform="translate(0,6.177)">
            <path
               d="m 6.796875,-5.859375 c -0.453125,0.09375 -0.625,0.4375 -0.625,0.703125 0,0.34375 0.265625,0.46875 0.46875,0.46875 0.4375,0 0.734375,-0.375 0.734375,-0.765625 0,-0.59375 -0.6875,-0.875 -1.296875,-0.875 -0.875,0 -1.359375,0.859375 -1.484375,1.140625 C 4.265625,-6.265625 3.375,-6.328125 3.109375,-6.328125 1.65625,-6.328125 0.875,-4.453125 0.875,-4.125 0.875,-4.078125 0.9375,-4 1.03125,-4 1.140625,-4 1.171875,-4.09375 1.203125,-4.140625 1.6875,-5.734375 2.65625,-6.03125 3.0625,-6.03125 c 0.65625,0 0.78125,0.59375 0.78125,0.9375 0,0.3125 -0.078125,0.640625 -0.265625,1.328125 l -0.484375,1.96875 c -0.203125,0.859375 -0.625,1.65625 -1.390625,1.65625 -0.0625,0 -0.421875,0 -0.734375,-0.1875 0.515625,-0.109375 0.640625,-0.53125 0.640625,-0.703125 0,-0.28125 -0.21875,-0.453125 -0.484375,-0.453125 -0.34375,0 -0.71875,0.296875 -0.71875,0.75 0,0.609375 0.671875,0.875 1.28125,0.875 0.6875,0 1.1875,-0.546875 1.484375,-1.125 0.234375,0.84375 0.9375,1.125 1.46875,1.125 1.46875,0 2.25,-1.875 2.25,-2.1875 0,-0.078125 -0.0625,-0.140625 -0.15625,-0.140625 -0.125,0 -0.140625,0.078125 -0.171875,0.1875 -0.390625,1.265625 -1.234375,1.859375 -1.875,1.859375 -0.5,0 -0.765625,-0.375 -0.765625,-0.96875 0,-0.3125 0.046875,-0.546875 0.28125,-1.484375 l 0.5,-1.953125 C 4.921875,-5.40625 5.40625,-6.03125 6.0625,-6.03125 c 0.03125,0 0.4375,0 0.734375,0.171875 z m 0,0"
               id="path9706" />
          </g>
        </g>
      </g>
    </g>
  </g>
  <g
     id="g53195"
     transform="matrix(-1,0,0,1,290.94941,0)">
    <text
       xml:space="preserve"
       style="font-style:italic;font-size:16px;font-family:sans-serif;-inkscape-font-specification:'sans-serif Italic';fill:#000000;stroke:#008000"
       x="320.30246"
       y="107.78718"
       id="text11168"><tspan
         id="tspan11166"
         x="320.30246"
         y="107.78718"
         sodipodi:role="line"
         style="fill:#000000" /></text>
    <text
       xml:space="preserve"
       id="text11236"
       style="font-style:italic;font-size:16px;font-family:sans-serif;-inkscape-font-specification:'sans-serif Italic';white-space:pre;shape-inside:url(#rect11238);fill:#ff2a2a;stroke:#008000"
       transform="translate(-74.349984,-59.477644)" />
    <text
       xml:space="preserve"
       id="text11242"
       style="font-style:italic;font-size:16px;font-family:sans-serif;-inkscape-font-specification:'sans-serif Italic';white-space:pre;shape-inside:url(#rect11244);fill:#ff2a2a;stroke:#008000"
       transform="translate(-74.349984,-59.477644)" />
    <g
       id="g21"
       transform="matrix(0.86326167,0,0,0.90549279,251.18087,205.34194)">
      <path
         d="M -290.96724,-226.77369 H 46.067765 V 51.640312 H -290.96724 Z"
         style="fill:#f9f9f9;fill-opacity:1;fill-rule:nonzero;stroke:none;stroke-width:0.7963;stroke-linecap:butt;stroke-linejoin:miter;stroke-miterlimit:4;stroke-dasharray:none;stroke-opacity:1"
         id="path23" />
    </g>
    <g
       id="g25"
       style="opacity:0.5;fill:#000000;stroke:#000000;stroke-width:0.999858;stroke-dasharray:none;stroke-opacity:1"
       transform="matrix(0.86326167,0,0,0.90549279,0.15546895,-3.5227822)">
      <path
         d="m 150.188,14.215 v 251.59"
         style="fill:#000000;stroke:#000000;stroke-width:0.999858;stroke-linecap:butt;stroke-linejoin:miter;stroke-miterlimit:4;stroke-dasharray:none;stroke-opacity:1"
         id="path27" />
    </g>
    <path
       d="m 127.94841,9.4511185 1.45374,-3.0524162 c 0.16833,-0.3504257 0.64399,-0.3504257 0.81233,0 l 1.45373,3.0524162 c 0.1856,0.3893619 -0.0846,0.8493515 -0.49897,0.8493515 h -2.72186 c -0.41437,0 -0.68802,-0.4599896 -0.49897,-0.8493515 z"
       style="fill:#000000;fill-opacity:1;fill-rule:evenodd;stroke:#000000;stroke-width:0.884125"
       id="path1606" />
    <g
       id="g31"
       transform="matrix(0,0.90549279,-0.86326167,0,0.15546895,-3.5227822)"
       style="fill:#000000;stroke:#000000;stroke-opacity:1">
      <path
         d="m 267.969,-150.188 -3.242,1.875 v -3.75 z"
         style="fill:#000000;fill-opacity:1;fill-rule:evenodd;stroke:#000000;stroke-width:0.499999;stroke-linecap:butt;stroke-linejoin:miter;stroke-miterlimit:4;stroke-dasharray:none;stroke-opacity:1"
         id="path33" />
    </g>
    <g
       id="g35"
       transform="matrix(0.86326167,0,0,0.90549279,0.15546895,-3.5227822)"
       style="opacity:0.5;fill:#000000;stroke:#000000;stroke-opacity:1">
      <path
         d="M 275.984,140.012 H 24.395"
         style="fill:#000000;stroke:#000000;stroke-width:0.749999;stroke-linecap:butt;stroke-linejoin:miter;stroke-miterlimit:4;stroke-dasharray:none;stroke-opacity:1"
         id="path37" />
    </g>
    <path
       d="m 238.30779,121.30393 2.91005,1.52847 c 0.33408,0.17295 0.33408,0.67549 0,0.84844 l -2.91005,1.52848 c -0.37466,0.19468 -0.81233,-0.0887 -0.81233,-0.527 v -2.85049 c 0,-0.43917 0.43767,-0.72168 0.81233,-0.5279 z"
       style="opacity:0.5;fill:#000000;fill-opacity:1;fill-rule:evenodd;stroke:#000000;stroke-width:0.884125;stroke-opacity:1"
       id="path39" />
    <path
       d="m 21.308833,125.20932 -2.910055,-1.52848 c -0.334082,-0.17295 -0.334082,-0.67549 0,-0.84844 l 2.910055,-1.52847 c 0.374656,-0.19378 0.81233,0.0887 0.81233,0.5279 v 2.85049 c 0,0.43826 -0.437674,0.72168 -0.81233,0.527 z"
       style="fill:#008000;fill-opacity:1;fill-rule:evenodd;stroke:none;stroke-width:0.884125"
       id="path41" />
    <g
       id="g43"
       transform="matrix(0.86326167,0,0,0.90549279,0.15546895,-3.5227822)">
      <path
         d="M 150.188,139.605 H 33.758"
         style="fill:none;stroke:#800018;stroke-width:2.1685;stroke-linecap:butt;stroke-linejoin:miter;stroke-miterlimit:4;stroke-dasharray:none;stroke-opacity:1"
         id="path45" />
    </g>
    <path
       d="m 31.917456,128.38578 -14.412154,-5.49724 14.412154,-5.49997 c -2.619999,3.20454 -2.619999,7.78181 0,10.99721 z"
       style="fill:#800018;fill-opacity:1;fill-rule:evenodd;stroke:none;stroke-width:0.884125"
       id="path47" />
    <g
       id="g49"
       transform="matrix(0.86326167,0,0,0.90549279,0.15546895,-3.5227822)">
      <path
         d="m 305.297,76.098 c 0,0 -155.516,12.953 -155.516,63.914"
         style="fill:none;stroke:#800018;stroke-width:2.1685;stroke-linecap:butt;stroke-linejoin:miter;stroke-miterlimit:4;stroke-dasharray:none;stroke-opacity:1"
         id="path51" />
    </g>
    <path
       d="m 260.65849,60.130644 14.79976,4.223219 -13.93045,6.734149 c 2.36102,-3.420046 1.99672,-7.979202 -0.86931,-10.957368 z"
       style="fill:#800018;fill-opacity:1;fill-rule:evenodd;stroke:none;stroke-width:0.884125"
       id="path53" />
    <g
       id="g55"
       transform="matrix(0.86326167,0,0,0.90549279,0.15546895,-3.5227822)">
      <path
         d="m 305.297,203.254 c 0,0 -155.516,-12.957 -155.516,-63.914"
         style="fill:none;stroke:#800018;stroke-width:2.1685;stroke-linecap:butt;stroke-linejoin:miter;stroke-miterlimit:4;stroke-dasharray:none;stroke-opacity:1"
         id="path57" />
    </g>
    <path
       d="m 261.5278,174.81312 13.93045,6.73505 -14.79976,4.22322 c 2.86603,-2.96096 3.22688,-7.52374 0.86931,-10.95827 z"
       style="fill:#800018;fill-opacity:1;fill-rule:evenodd;stroke:none;stroke-width:0.884125"
       id="path59" />
    <g
       id="g61"
       transform="matrix(0.86326167,0,0,0.90549279,0.15546895,-3.5227822)"
       style="fill:#800000;stroke:#800000;stroke-opacity:1">
      <path
         d="m 149.227,139.586 168.64,-0.797"
         style="fill:#800000;stroke:#800000;stroke-width:2.23967;stroke-linecap:butt;stroke-linejoin:miter;stroke-miterlimit:4;stroke-dasharray:4.47933, 2.23967;stroke-dashoffset:0;stroke-opacity:1"
         id="path63" />
    </g>
    <path
       d="m 276.4933,122.14241 -5.77263,6.11208 -3.86827,0.0181 5.77349,-6.11208 -5.82702,-6.05593 3.86396,-0.0172 z"
       style="fill:#800018;fill-opacity:1;fill-rule:evenodd;stroke:none;stroke-width:0.884125"
       id="path65" />
    <text
       xml:space="preserve"
       style="font-style:italic;font-size:10.6095px;font-family:sans-serif;-inkscape-font-specification:'sans-serif Italic';fill:#000000;stroke:#008000;stroke-width:0.663096"
       x="25.714983"
       y="208.16295"
       id="text11250"
       transform="scale(0.97640213,1.0241682)"><tspan
         sodipodi:role="line"
         id="tspan11248"
         style="fill:#000000;stroke-width:0.663096"
         x="25.714983"
         y="208.16295">$\frac{dx}{dt} = \mu x - x^3$</tspan></text>
    <text
       xml:space="preserve"
       style="font-style:italic;font-size:10.6277px;font-family:sans-serif;-inkscape-font-specification:'sans-serif Italic';fill:#000000;stroke:#008000;stroke-width:0.664233"
       x="137.88649"
       y="17.034683"
       id="text11164"
       transform="scale(0.97808148,1.0224097)"><tspan
         sodipodi:role="line"
         id="tspan11162"
         x="137.88649"
         y="17.034683"
         style="fill:#000000;stroke-width:0.664233">$x$</tspan></text>
    <text
       xml:space="preserve"
       style="font-style:italic;font-size:10.6277px;font-family:sans-serif;-inkscape-font-specification:'sans-serif Italic';fill:#008000;stroke:#008000;stroke-width:0.664233"
       x="218.26959"
       y="61.578186"
       id="text11222"
       transform="scale(0.97808148,1.0224097)"><tspan
         sodipodi:role="line"
         id="tspan11220"
         x="218.26959"
         y="61.578186"
         style="fill:#008000;stroke-width:0.664233">stable</tspan></text>
    <text
       xml:space="preserve"
       style="font-style:italic;font-size:10.6277px;font-family:sans-serif;-inkscape-font-specification:'sans-serif Italic';fill:#008000;stroke:#008000;stroke-width:0.664233"
       x="218.26959"
       y="162.95303"
       id="text11226"
       transform="scale(0.97808148,1.0224097)"><tspan
         sodipodi:role="line"
         id="tspan11224"
         x="218.26959"
         y="162.95303"
         style="fill:#008000;stroke-width:0.664233">stable</tspan></text>
    <text
       xml:space="preserve"
       style="font-style:italic;font-size:10.6277px;font-family:sans-serif;-inkscape-font-specification:'sans-serif Italic';fill:#ff0000;stroke:#008000;stroke-width:0.664233"
       x="182.42999"
       y="113.2896"
       id="text11230"
       transform="scale(0.97808148,1.0224097)"><tspan
         sodipodi:role="line"
         id="tspan11228"
         x="182.42999"
         y="113.2896"
         style="fill:#ff0000;stroke-width:0.664233">unstable</tspan></text>
    <text
       xml:space="preserve"
       style="font-style:italic;font-size:10.6277px;font-family:sans-serif;-inkscape-font-specification:'sans-serif Italic';fill:#008000;stroke:#008000;stroke-width:0.664233"
       x="53.407436"
       y="115.33757"
       id="text11234"
       transform="scale(0.97808148,1.0224097)"><tspan
         sodipodi:role="line"
         id="tspan11232"
         x="53.407436"
         y="115.33757"
         style="fill:#008000;stroke-width:0.664233">stable</tspan></text>
    <text
       xml:space="preserve"
       style="font-style:italic;font-size:10.6277px;font-family:sans-serif;-inkscape-font-specification:'sans-serif Italic';fill:#000000;stroke:#008000;stroke-width:0.664233"
       x="259.198"
       y="135.49525"
       id="text15265"
       transform="scale(0.97808148,1.0224097)"><tspan
         sodipodi:role="line"
         id="tspan15263"
         x="259.198"
         y="135.49525"
         style="stroke-width:0.664233">$\mu$</tspan></text>
  </g>
</svg>
