<?xml version="1.0" encoding="UTF-8" standalone="no"?>
<!-- Created with Inkscape (http://www.inkscape.org/) -->

<svg
   width="156.99095mm"
   height="141.96118mm"
   viewBox="0 0 156.99095 141.96118"
   version="1.1"
   id="svg5"
   inkscape:version="1.2 (dc2aedaf03, 2022-05-15)"
   sodipodi:docname="pearsonCC05.svg"
   xmlns:inkscape="http://www.inkscape.org/namespaces/inkscape"
   xmlns:sodipodi="http://sodipodi.sourceforge.net/DTD/sodipodi-0.dtd"
   xmlns="http://www.w3.org/2000/svg"
   xmlns:svg="http://www.w3.org/2000/svg">
  <sodipodi:namedview
     id="namedview7"
     pagecolor="#ffffff"
     bordercolor="#999999"
     borderopacity="1"
     inkscape:showpageshadow="0"
     inkscape:pageopacity="0"
     inkscape:pagecheckerboard="0"
     inkscape:deskcolor="#d1d1d1"
     inkscape:document-units="mm"
     showgrid="false"
     inkscape:zoom="0.92114198"
     inkscape:cx="347.93768"
     inkscape:cy="271.94505"
     inkscape:window-width="1280"
     inkscape:window-height="698"
     inkscape:window-x="-6"
     inkscape:window-y="-6"
     inkscape:window-maximized="1"
     inkscape:current-layer="svg5" />
  <defs
     id="defs2">
    <marker
       style="overflow:visible"
       id="TriangleStart"
       refX="0"
       refY="0"
       orient="auto-start-reverse"
       inkscape:stockid="TriangleStart"
       markerWidth="5.3244081"
       markerHeight="6.155385"
       viewBox="0 0 5.3244081 6.1553851"
       inkscape:isstock="true"
       inkscape:collect="always"
       preserveAspectRatio="xMidYMid">
      <path
         transform="scale(0.5)"
         style="fill:context-stroke;fill-rule:evenodd;stroke:context-stroke;stroke-width:1pt"
         d="M 5.77,0 -2.88,5 V -5 Z"
         id="path135" />
    </marker>
  </defs>
  <rect
     style="fill:#f9f9f9;fill-rule:evenodd;stroke:#280b0b;stroke-width:0.600001;stroke-miterlimit:5.2"
     id="rect61"
     width="156.39095"
     height="141.36118"
     x="0.30000049"
     y="0.30000049" />
  <path
     style="fill:#f9f9f9;fill-rule:evenodd;stroke:#280b0b;stroke-width:0.600001;stroke-miterlimit:5.2;marker-start:url(#TriangleStart);marker-end:url(#TriangleStart)"
     d="m 25.078826,23.047777 v 68.649541 28.434712 l 112.520244,0.40621"
     id="path278"
     sodipodi:nodetypes="cccc" />
  <g
     id="g44443"
     style="fill:#ff0000">
    <path
       style="fill:#ff0000;fill-rule:evenodd;stroke:#3240b8;stroke-width:0.600001;stroke-miterlimit:5.2;stroke-opacity:1"
       id="path3073-91"
       sodipodi:type="arc"
       sodipodi:cx="82.736099"
       sodipodi:cy="51.230869"
       sodipodi:rx="2.6403668"
       sodipodi:ry="2.6403668"
       sodipodi:start="0.46461072"
       sodipodi:end="0.43267107"
       sodipodi:open="true"
       sodipodi:arc-type="arc"
       d="m 85.096577,52.413951 a 2.6403668,2.6403668 0 0 1 -3.524674,1.186767 2.6403668,2.6403668 0 0 1 -1.214873,-3.515085 2.6403668,2.6403668 0 0 1 3.505272,-1.242902 2.6403668,2.6403668 0 0 1 1.270852,3.495237" />
    <path
       style="fill:#ff0000;fill-rule:evenodd;stroke:#3240b8;stroke-width:0.600001;stroke-miterlimit:5.2;stroke-opacity:1"
       id="path3073-12"
       sodipodi:type="arc"
       sodipodi:cx="124.38694"
       sodipodi:cy="51.230869"
       sodipodi:rx="2.6403668"
       sodipodi:ry="2.6403668"
       sodipodi:start="0.46461072"
       sodipodi:end="0.43267107"
       sodipodi:open="true"
       sodipodi:arc-type="arc"
       d="m 126.74742,52.413951 a 2.6403668,2.6403668 0 0 1 -3.52468,1.186767 2.6403668,2.6403668 0 0 1 -1.21487,-3.515085 2.6403668,2.6403668 0 0 1 3.50527,-1.242902 2.6403668,2.6403668 0 0 1 1.27085,3.495237" />
    <path
       style="fill:#ff0000;fill-rule:evenodd;stroke:#3240b8;stroke-width:0.600001;stroke-miterlimit:5.2;stroke-opacity:1"
       id="path3073-7"
       sodipodi:type="arc"
       sodipodi:cx="129.86133"
       sodipodi:cy="67.786438"
       sodipodi:rx="2.6403668"
       sodipodi:ry="2.6403668"
       sodipodi:start="0.46461072"
       sodipodi:end="0.43267107"
       sodipodi:open="true"
       sodipodi:arc-type="arc"
       d="m 132.22181,68.96952 a 2.6403668,2.6403668 0 0 1 -3.52468,1.186767 2.6403668,2.6403668 0 0 1 -1.21487,-3.515085 2.6403668,2.6403668 0 0 1 3.50527,-1.242902 2.6403668,2.6403668 0 0 1 1.27085,3.495236" />
    <path
       style="fill:#ff0000;fill-rule:evenodd;stroke:#3240b8;stroke-width:0.600001;stroke-miterlimit:5.2;stroke-opacity:1"
       id="path3073-1"
       sodipodi:type="arc"
       sodipodi:cx="91.387466"
       sodipodi:cy="71.649109"
       sodipodi:rx="2.6403668"
       sodipodi:ry="2.6403668"
       sodipodi:start="0.46461072"
       sodipodi:end="0.43267107"
       sodipodi:open="true"
       sodipodi:arc-type="arc"
       d="m 93.747944,72.832191 a 2.6403668,2.6403668 0 0 1 -3.524674,1.186767 2.6403668,2.6403668 0 0 1 -1.214873,-3.515085 2.6403668,2.6403668 0 0 1 3.505273,-1.242902 2.6403668,2.6403668 0 0 1 1.270851,3.495236" />
    <path
       style="fill:#ff0000;fill-rule:evenodd;stroke:#3240b8;stroke-width:0.600001;stroke-miterlimit:5.2;stroke-opacity:1"
       id="path3073-42"
       sodipodi:type="arc"
       sodipodi:cx="121.44707"
       sodipodi:cy="88.447678"
       sodipodi:rx="2.6403668"
       sodipodi:ry="2.6403668"
       sodipodi:start="0.46461072"
       sodipodi:end="0.43267107"
       sodipodi:open="true"
       sodipodi:arc-type="arc"
       d="m 123.80754,89.630759 a 2.6403668,2.6403668 0 0 1 -3.52467,1.186768 2.6403668,2.6403668 0 0 1 -1.21487,-3.515086 2.6403668,2.6403668 0 0 1 3.50527,-1.242901 2.6403668,2.6403668 0 0 1 1.27085,3.495236" />
    <path
       style="fill:#ff0000;fill-rule:evenodd;stroke:#3240b8;stroke-width:0.600001;stroke-miterlimit:5.2;stroke-opacity:1"
       id="path3073-9"
       sodipodi:type="arc"
       sodipodi:cx="72.868935"
       sodipodi:cy="97.125404"
       sodipodi:rx="2.6403668"
       sodipodi:ry="2.6403668"
       sodipodi:start="0.46461072"
       sodipodi:end="0.43267107"
       sodipodi:open="true"
       sodipodi:arc-type="arc"
       d="m 75.229412,98.308486 a 2.6403668,2.6403668 0 0 1 -3.524674,1.186767 2.6403668,2.6403668 0 0 1 -1.214873,-3.515085 2.6403668,2.6403668 0 0 1 3.505273,-1.242902 2.6403668,2.6403668 0 0 1 1.270851,3.495237" />
    <path
       style="fill:#ff0000;fill-rule:evenodd;stroke:#3240b8;stroke-width:0.600001;stroke-miterlimit:5.2;stroke-opacity:1"
       id="path3073-3"
       sodipodi:type="arc"
       sodipodi:cx="63.369301"
       sodipodi:cy="113.34548"
       sodipodi:rx="2.6403668"
       sodipodi:ry="2.6403668"
       sodipodi:start="0.46461072"
       sodipodi:end="0.43267107"
       sodipodi:open="true"
       sodipodi:arc-type="arc"
       d="m 65.729778,114.52856 a 2.6403668,2.6403668 0 0 1 -3.524673,1.18677 2.6403668,2.6403668 0 0 1 -1.214873,-3.51508 2.6403668,2.6403668 0 0 1 3.505272,-1.24291 2.6403668,2.6403668 0 0 1 1.270851,3.49524" />
    <path
       style="fill:#ff0000;fill-rule:evenodd;stroke:#3240b8;stroke-width:0.600001;stroke-miterlimit:5.2;stroke-opacity:1"
       id="path3073-27"
       sodipodi:type="arc"
       sodipodi:cx="115.72988"
       sodipodi:cy="111.09119"
       sodipodi:rx="2.6403668"
       sodipodi:ry="2.6403668"
       sodipodi:start="0.46461072"
       sodipodi:end="0.43267107"
       sodipodi:open="true"
       sodipodi:arc-type="arc"
       d="m 118.09036,112.27427 a 2.6403668,2.6403668 0 0 1 -3.52467,1.18677 2.6403668,2.6403668 0 0 1 -1.21488,-3.51509 2.6403668,2.6403668 0 0 1 3.50527,-1.2429 2.6403668,2.6403668 0 0 1 1.27086,3.49523" />
    <path
       style="fill:#ff0000;fill-rule:evenodd;stroke:#3240b8;stroke-width:0.600001;stroke-miterlimit:5.2;stroke-opacity:1"
       id="path3073-8"
       sodipodi:type="arc"
       sodipodi:cx="88.447594"
       sodipodi:cy="108.15136"
       sodipodi:rx="2.6403668"
       sodipodi:ry="2.6403668"
       sodipodi:start="0.46461072"
       sodipodi:end="0.43267107"
       sodipodi:open="true"
       sodipodi:arc-type="arc"
       d="m 90.808071,109.33444 a 2.6403668,2.6403668 0 0 1 -3.524673,1.18677 2.6403668,2.6403668 0 0 1 -1.214874,-3.51509 2.6403668,2.6403668 0 0 1 3.505273,-1.2429 2.6403668,2.6403668 0 0 1 1.270851,3.49524" />
    <path
       style="fill:#ff0000;fill-rule:evenodd;stroke:#3240b8;stroke-width:0.600001;stroke-miterlimit:5.2;stroke-opacity:1"
       id="path3073-2"
       sodipodi:type="arc"
       sodipodi:cx="33.17762"
       sodipodi:cy="94.185577"
       sodipodi:rx="2.6403668"
       sodipodi:ry="2.6403668"
       sodipodi:start="0.46461072"
       sodipodi:end="0.43267107"
       sodipodi:open="true"
       sodipodi:arc-type="arc"
       d="m 35.538097,95.368659 a 2.6403668,2.6403668 0 0 1 -3.524673,1.186767 2.6403668,2.6403668 0 0 1 -1.214873,-3.515085 2.6403668,2.6403668 0 0 1 3.505272,-1.242902 2.6403668,2.6403668 0 0 1 1.270851,3.495237" />
    <path
       style="fill:#ff0000;fill-rule:evenodd;stroke:#3240b8;stroke-width:0.600001;stroke-miterlimit:5.2;stroke-opacity:1"
       id="path3073-87"
       sodipodi:type="arc"
       sodipodi:cx="50.76643"
       sodipodi:cy="102.96918"
       sodipodi:rx="2.6403668"
       sodipodi:ry="2.6403668"
       sodipodi:start="0.46461072"
       sodipodi:end="0.43267107"
       sodipodi:open="true"
       sodipodi:arc-type="arc"
       d="m 53.126907,104.15226 a 2.6403668,2.6403668 0 0 1 -3.524673,1.18677 2.6403668,2.6403668 0 0 1 -1.214873,-3.51509 2.6403668,2.6403668 0 0 1 3.505272,-1.2429 2.6403668,2.6403668 0 0 1 1.270851,3.49524" />
    <path
       style="fill:#ff0000;fill-rule:evenodd;stroke:#3240b8;stroke-width:0.600001;stroke-miterlimit:5.2;stroke-opacity:1"
       id="path3073"
       sodipodi:type="arc"
       sodipodi:cx="66.989189"
       sodipodi:cy="67.786438"
       sodipodi:rx="2.6403668"
       sodipodi:ry="2.6403668"
       sodipodi:start="0.46461072"
       sodipodi:end="0.43267107"
       sodipodi:open="true"
       sodipodi:arc-type="arc"
       d="m 69.349667,68.96952 a 2.6403668,2.6403668 0 0 1 -3.524674,1.186767 2.6403668,2.6403668 0 0 1 -1.214873,-3.515085 2.6403668,2.6403668 0 0 1 3.505272,-1.242902 2.6403668,2.6403668 0 0 1 1.270852,3.495236" />
    <path
       style="fill:#ff0000;fill-rule:evenodd;stroke:#3240b8;stroke-width:0.600001;stroke-miterlimit:5.2;stroke-opacity:1"
       id="path3073-4"
       sodipodi:type="arc"
       sodipodi:cx="34.616154"
       sodipodi:cy="58.377674"
       sodipodi:rx="2.6403668"
       sodipodi:ry="2.6403668"
       sodipodi:start="0.46461072"
       sodipodi:end="0.43267107"
       sodipodi:open="true"
       sodipodi:arc-type="arc"
       d="m 36.976631,59.560756 a 2.6403668,2.6403668 0 0 1 -3.524673,1.186767 2.6403668,2.6403668 0 0 1 -1.214874,-3.515085 2.6403668,2.6403668 0 0 1 3.505273,-1.242902 2.6403668,2.6403668 0 0 1 1.270851,3.495237" />
    <path
       style="fill:#ff0000;fill-rule:evenodd;stroke:#3240b8;stroke-width:0.600001;stroke-miterlimit:5.2;stroke-opacity:1"
       id="path3073-47"
       sodipodi:type="arc"
       sodipodi:cx="42.860481"
       sodipodi:cy="76.66758"
       sodipodi:rx="2.6403668"
       sodipodi:ry="2.6403668"
       sodipodi:start="0.46461072"
       sodipodi:end="0.43267107"
       sodipodi:open="true"
       sodipodi:arc-type="arc"
       d="m 45.220959,77.850662 a 2.6403668,2.6403668 0 0 1 -3.524674,1.186767 2.6403668,2.6403668 0 0 1 -1.214873,-3.515086 2.6403668,2.6403668 0 0 1 3.505273,-1.242901 2.6403668,2.6403668 0 0 1 1.270851,3.495236" />
  </g>
  <text
     xml:space="preserve"
     style="font-style:italic;font-size:4.9389px;font-family:sans-serif;-inkscape-font-specification:'sans-serif, Italic';fill:#ff00ff;fill-rule:evenodd;stroke:#3240b8;stroke-width:2;stroke-miterlimit:5.2;stroke-dasharray:2, 2;stroke-dashoffset:0;stroke-opacity:1"
     x="13.704938"
     y="26.703669"
     id="text4252"><tspan
       sodipodi:role="line"
       id="tspan4250"
       style="stroke-width:2"
       x="13.704938"
       y="26.703669" /></text>
  <text
     xml:space="preserve"
     style="font-style:italic;font-size:4.9389px;font-family:sans-serif;-inkscape-font-specification:'sans-serif, Italic';fill:#ff00ff;fill-rule:evenodd;stroke:#3240b8;stroke-width:2;stroke-miterlimit:5.2;stroke-dasharray:2, 2;stroke-dashoffset:0;stroke-opacity:1"
     x="12.892522"
     y="25.078825"
     id="text4256"><tspan
       sodipodi:role="line"
       id="tspan4254"
       style="stroke-width:2"
       x="12.892522"
       y="25.078825" /></text>
  <g
     id="g14154"
     style="display:inline"
     transform="translate(-25.291247,-33.009242)">
    <g
       id="g14247">
      <text
         xml:space="preserve"
         style="font-style:italic;font-variant:normal;font-weight:normal;font-stretch:normal;font-size:3.52778px;font-family:sans-serif;-inkscape-font-specification:'sans-serif, Italic';font-variant-ligatures:normal;font-variant-caps:normal;font-variant-numeric:normal;font-variant-east-asian:normal;fill:#000000;fill-rule:evenodd;stroke:#3240b8;stroke-width:0.8;stroke-miterlimit:5.2;stroke-dasharray:none;stroke-dashoffset:0;stroke-opacity:1"
         x="152.23175"
         y="162.59546"
         id="text5101-9"
         inkscape:transform-center-x="0.81242056"
         inkscape:transform-center-y="-2.843472"><tspan
           sodipodi:role="line"
           id="tspan5099-7"
           style="font-style:italic;font-variant:normal;font-weight:normal;font-stretch:normal;font-size:3.52778px;font-family:sans-serif;-inkscape-font-specification:'sans-serif, Italic';font-variant-ligatures:normal;font-variant-caps:normal;font-variant-numeric:normal;font-variant-east-asian:normal;fill:#000000;stroke-width:0.8;stroke-dasharray:none"
           x="152.23175"
           y="162.59546">\huge{$x$}</tspan></text>
      <text
         xml:space="preserve"
         style="font-style:italic;font-variant:normal;font-weight:normal;font-stretch:normal;font-size:3.52777778px;font-family:sans-serif;-inkscape-font-specification:'sans-serif, Italic';font-variant-ligatures:normal;font-variant-caps:normal;font-variant-numeric:normal;font-variant-east-asian:normal;fill:#000000;fill-opacity:1;fill-rule:evenodd;stroke:#3240b8;stroke-width:0.8;stroke-miterlimit:5.2;stroke-dasharray:none;stroke-dashoffset:0;stroke-opacity:1"
         x="34.121666"
         y="63.775009"
         id="text5101"><tspan
           sodipodi:role="line"
           id="tspan5099"
           style="font-style:italic;font-variant:normal;font-weight:normal;font-stretch:normal;font-size:3.52777778px;font-family:sans-serif;-inkscape-font-specification:'sans-serif, Italic';font-variant-ligatures:normal;font-variant-caps:normal;font-variant-numeric:normal;font-variant-east-asian:normal;fill:#000000;fill-opacity:1;stroke-width:0.8;stroke-dasharray:none"
           x="34.121666"
           y="63.775009">\huge{$y$}</tspan></text>
      <text
         xml:space="preserve"
         style="font-style:italic;font-variant:normal;font-weight:normal;font-stretch:normal;font-size:3.52777778px;font-family:sans-serif;-inkscape-font-specification:'sans-serif, Italic';font-variant-ligatures:normal;font-variant-caps:normal;font-variant-numeric:normal;font-variant-east-asian:normal;fill:#000000;fill-rule:evenodd;stroke:#3240b8;stroke-width:0.799999;stroke-miterlimit:5.2;stroke-dasharray:none;stroke-dashoffset:0;stroke-opacity:1"
         x="97.341026"
         y="44.354145"
         id="text5930"><tspan
           sodipodi:role="line"
           id="tspan5928"
           style="font-style:italic;font-variant:normal;font-weight:normal;font-stretch:normal;font-size:3.52777778px;font-family:sans-serif;-inkscape-font-specification:'sans-serif, Italic';font-variant-ligatures:normal;font-variant-caps:normal;font-variant-numeric:normal;font-variant-east-asian:normal;fill:#000000;stroke-width:0.8"
           x="97.341026"
           y="44.354145">\huge{$\rho \approx 0$}</tspan></text>
    </g>
  </g>
  <text
     xml:space="preserve"
     style="font-style:italic;font-variant:normal;font-weight:normal;font-stretch:normal;font-size:3.52777px;font-family:sans-serif;-inkscape-font-specification:'sans-serif, Italic';font-variant-ligatures:normal;font-variant-caps:normal;font-variant-numeric:normal;font-variant-east-asian:normal;fill:#000000;fill-rule:evenodd;stroke:#000000;stroke-width:0.2;stroke-miterlimit:5.2;fill-opacity:1;stroke-opacity:1.0"
     x="55.723404"
     y="32.012436"
     id="text44533"><tspan
       sodipodi:role="line"
       id="tspan44531"
       style="stroke-width:0.2;fill:#000000;fill-opacity:1;stroke:#000000;stroke-opacity:1.0"
       x="55.723404"
       y="32.012436">\huge{No Best Fit Line}</tspan></text>
</svg>
