<?xml version="1.0" encoding="UTF-8" standalone="no"?>
<!-- Created with Inkscape (http://www.inkscape.org/) -->

<svg
   width="156.99095mm"
   height="141.96118mm"
   viewBox="0 0 156.99095 141.96118"
   version="1.1"
   id="svg5"
   inkscape:version="1.2 (dc2aedaf03, 2022-05-15)"
   sodipodi:docname="pearsonCC04.svg"
   xmlns:inkscape="http://www.inkscape.org/namespaces/inkscape"
   xmlns:sodipodi="http://sodipodi.sourceforge.net/DTD/sodipodi-0.dtd"
   xmlns="http://www.w3.org/2000/svg"
   xmlns:svg="http://www.w3.org/2000/svg">
  <sodipodi:namedview
     id="namedview7"
     pagecolor="#ffffff"
     bordercolor="#999999"
     borderopacity="1"
     inkscape:showpageshadow="0"
     inkscape:pageopacity="0"
     inkscape:pagecheckerboard="0"
     inkscape:deskcolor="#d1d1d1"
     inkscape:document-units="mm"
     showgrid="false"
     inkscape:zoom="0.92114198"
     inkscape:cx="258.91774"
     inkscape:cy="275.20187"
     inkscape:window-width="1280"
     inkscape:window-height="698"
     inkscape:window-x="-6"
     inkscape:window-y="-6"
     inkscape:window-maximized="1"
     inkscape:current-layer="g14247" />
  <defs
     id="defs2">
    <marker
       style="overflow:visible"
       id="EmptyTriangleIn"
       refX="0"
       refY="0"
       orient="auto-start-reverse"
       inkscape:stockid="EmptyTriangleIn"
       markerWidth="5.8241119"
       markerHeight="6.7330775"
       viewBox="0 0 5.8241121 6.7330776"
       inkscape:isstock="true"
       inkscape:collect="always"
       preserveAspectRatio="xMidYMid">
      <path
         transform="scale(0.5)"
         style="fill:context-fill;fill-rule:evenodd;stroke:context-stroke;stroke-width:2"
         d="M 5.77,0 -2.88,5 V -5 Z"
         id="path153" />
    </marker>
    <marker
       style="overflow:visible"
       id="TriangleStart"
       refX="0"
       refY="0"
       orient="auto-start-reverse"
       inkscape:stockid="TriangleStart"
       markerWidth="5.3244081"
       markerHeight="6.155385"
       viewBox="0 0 5.3244081 6.1553851"
       inkscape:isstock="true"
       inkscape:collect="always"
       preserveAspectRatio="xMidYMid">
      <path
         transform="scale(0.5)"
         style="fill:context-stroke;fill-rule:evenodd;stroke:context-stroke;stroke-width:1pt"
         d="M 5.77,0 -2.88,5 V -5 Z"
         id="path135" />
    </marker>
  </defs>
  <rect
     style="fill:#f9f9f9;fill-rule:evenodd;stroke:#280b0b;stroke-width:0.600001;stroke-miterlimit:5.2"
     id="rect61"
     width="156.39095"
     height="141.36118"
     x="0.30000055"
     y="0.30000025" />
  <path
     style="fill:#f9f9f9;fill-rule:evenodd;stroke:#280b0b;stroke-width:0.600001;stroke-miterlimit:5.2;marker-start:url(#TriangleStart);marker-end:url(#TriangleStart)"
     d="m 25.078826,23.047777 v 68.649541 28.434712 l 112.520244,0.40621"
     id="path278"
     sodipodi:nodetypes="cccc" />
  <path
     style="fill:#00ff00;fill-rule:evenodd;stroke:#3240b8;stroke-width:0.600001;stroke-miterlimit:5.2;stroke-opacity:1"
     id="path3073-91"
     sodipodi:type="arc"
     sodipodi:cx="95.5326"
     sodipodi:cy="92.915993"
     sodipodi:rx="2.6403668"
     sodipodi:ry="2.6403668"
     sodipodi:start="0.46461072"
     sodipodi:end="0.43267107"
     sodipodi:open="true"
     sodipodi:arc-type="arc"
     d="m 97.893078,94.099075 a 2.6403668,2.6403668 0 0 1 -3.524674,1.186767 2.6403668,2.6403668 0 0 1 -1.214873,-3.515085 2.6403668,2.6403668 0 0 1 3.505273,-1.242902 2.6403668,2.6403668 0 0 1 1.270851,3.495236" />
  <path
     style="fill:#00ff00;fill-rule:evenodd;stroke:#3240b8;stroke-width:0.600001;stroke-miterlimit:5.2;stroke-opacity:1"
     id="path3073-12"
     sodipodi:type="arc"
     sodipodi:cx="-43.751171"
     sodipodi:cy="53.10738"
     sodipodi:rx="2.6403668"
     sodipodi:ry="2.6403668"
     sodipodi:start="0.46461072"
     sodipodi:end="0.43267107"
     sodipodi:open="true"
     sodipodi:arc-type="arc"
     d="m -41.390694,54.290462 a 2.6403668,2.6403668 0 0 1 -3.524673,1.186767 2.6403668,2.6403668 0 0 1 -1.214873,-3.515085 2.6403668,2.6403668 0 0 1 3.505272,-1.242902 2.6403668,2.6403668 0 0 1 1.270851,3.495236"
     transform="scale(-1,1)" />
  <path
     style="fill:#00ff00;fill-rule:evenodd;stroke:#3240b8;stroke-width:0.600001;stroke-miterlimit:5.2;stroke-opacity:1"
     id="path3073-7"
     sodipodi:type="arc"
     sodipodi:cx="-30.656002"
     sodipodi:cy="63.765163"
     sodipodi:rx="2.6403668"
     sodipodi:ry="2.6403668"
     sodipodi:start="0.46461072"
     sodipodi:end="0.43267107"
     sodipodi:open="true"
     sodipodi:arc-type="arc"
     d="m -28.295525,64.948245 a 2.6403668,2.6403668 0 0 1 -3.524673,1.186767 2.6403668,2.6403668 0 0 1 -1.214873,-3.515085 2.6403668,2.6403668 0 0 1 3.505272,-1.242902 2.6403668,2.6403668 0 0 1 1.270851,3.495237"
     transform="scale(-1,1)" />
  <path
     style="fill:#00ff00;fill-rule:evenodd;stroke:#3240b8;stroke-width:0.600001;stroke-miterlimit:5.2;stroke-opacity:1"
     id="path3073-1"
     sodipodi:type="arc"
     sodipodi:cx="-50.25053"
     sodipodi:cy="58.794323"
     sodipodi:rx="2.6403668"
     sodipodi:ry="2.6403668"
     sodipodi:start="0.46461072"
     sodipodi:end="0.43267107"
     sodipodi:open="true"
     sodipodi:arc-type="arc"
     d="m -47.890053,59.977405 a 2.6403668,2.6403668 0 0 1 -3.524673,1.186767 2.6403668,2.6403668 0 0 1 -1.214874,-3.515085 2.6403668,2.6403668 0 0 1 3.505273,-1.242902 2.6403668,2.6403668 0 0 1 1.270851,3.495236"
     transform="scale(-1,1)" />
  <path
     style="fill:#00ff00;fill-rule:evenodd;stroke:#3240b8;stroke-width:0.600001;stroke-miterlimit:5.2;stroke-opacity:1"
     id="path3073-42"
     sodipodi:type="arc"
     sodipodi:cx="-49.940723"
     sodipodi:cy="75.279442"
     sodipodi:rx="2.6403668"
     sodipodi:ry="2.6403668"
     sodipodi:start="0.46461072"
     sodipodi:end="0.43267107"
     sodipodi:open="true"
     sodipodi:arc-type="arc"
     d="m -47.580246,76.462524 a 2.6403668,2.6403668 0 0 1 -3.524674,1.186767 2.6403668,2.6403668 0 0 1 -1.214873,-3.515085 2.6403668,2.6403668 0 0 1 3.505273,-1.242902 2.6403668,2.6403668 0 0 1 1.270851,3.495236"
     transform="scale(-1,1)" />
  <path
     style="fill:#00ff00;fill-rule:evenodd;stroke:#3240b8;stroke-width:0.600001;stroke-miterlimit:5.2;stroke-opacity:1"
     id="path3073-9"
     sodipodi:type="arc"
     sodipodi:cx="-63.655476"
     sodipodi:cy="85.197998"
     sodipodi:rx="2.6403668"
     sodipodi:ry="2.6403668"
     sodipodi:start="0.46461072"
     sodipodi:end="0.43267107"
     sodipodi:open="true"
     sodipodi:arc-type="arc"
     d="m -61.294998,86.38108 a 2.6403668,2.6403668 0 0 1 -3.524674,1.186767 2.6403668,2.6403668 0 0 1 -1.214873,-3.515085 2.6403668,2.6403668 0 0 1 3.505273,-1.242902 2.6403668,2.6403668 0 0 1 1.270851,3.495237"
     transform="scale(-1,1)" />
  <path
     style="fill:#00ff00;fill-rule:evenodd;stroke:#3240b8;stroke-width:0.600001;stroke-miterlimit:5.2;stroke-opacity:1"
     id="path3073-3"
     sodipodi:type="arc"
     sodipodi:cx="-101.33664"
     sodipodi:cy="113.34548"
     sodipodi:rx="2.6403668"
     sodipodi:ry="2.6403668"
     sodipodi:start="0.46461072"
     sodipodi:end="0.43267107"
     sodipodi:open="true"
     sodipodi:arc-type="arc"
     d="m -98.976162,114.52856 a 2.6403668,2.6403668 0 0 1 -3.524678,1.18677 2.6403668,2.6403668 0 0 1 -1.21487,-3.51508 2.6403668,2.6403668 0 0 1 3.50527,-1.24291 2.6403668,2.6403668 0 0 1 1.270855,3.49524"
     transform="scale(-1,1)" />
  <path
     style="fill:#00ff00;fill-rule:evenodd;stroke:#3240b8;stroke-width:0.600001;stroke-miterlimit:5.2;stroke-opacity:1"
     id="path3073-27"
     sodipodi:type="arc"
     sodipodi:cx="-49.940723"
     sodipodi:cy="75.279442"
     sodipodi:rx="2.6403668"
     sodipodi:ry="2.6403668"
     sodipodi:start="0.46461072"
     sodipodi:end="0.43267107"
     sodipodi:open="true"
     sodipodi:arc-type="arc"
     d="m -47.580246,76.462524 a 2.6403668,2.6403668 0 0 1 -3.524674,1.186767 2.6403668,2.6403668 0 0 1 -1.214873,-3.515085 2.6403668,2.6403668 0 0 1 3.505273,-1.242902 2.6403668,2.6403668 0 0 1 1.270851,3.495236"
     transform="scale(-1,1)" />
  <path
     style="fill:#00ff00;fill-rule:evenodd;stroke:#3240b8;stroke-width:0.600001;stroke-miterlimit:5.2;stroke-opacity:1"
     id="path3073-8"
     sodipodi:type="arc"
     sodipodi:cx="-64.788025"
     sodipodi:cy="64.673981"
     sodipodi:rx="2.6403668"
     sodipodi:ry="2.6403668"
     sodipodi:start="0.46461072"
     sodipodi:end="0.43267107"
     sodipodi:open="true"
     sodipodi:arc-type="arc"
     d="m -62.427547,65.857063 a 2.6403668,2.6403668 0 0 1 -3.524674,1.186767 2.6403668,2.6403668 0 0 1 -1.214873,-3.515085 2.6403668,2.6403668 0 0 1 3.505272,-1.242902 2.6403668,2.6403668 0 0 1 1.270851,3.495236"
     transform="scale(-1,1)" />
  <path
     style="fill:#00ff00;fill-rule:evenodd;stroke:#3240b8;stroke-width:0.600001;stroke-miterlimit:5.2;stroke-opacity:1"
     id="path3073-2"
     sodipodi:type="arc"
     sodipodi:cx="-123.80843"
     sodipodi:cy="107.46583"
     sodipodi:rx="2.6403668"
     sodipodi:ry="2.6403668"
     sodipodi:start="0.46461072"
     sodipodi:end="0.43267107"
     sodipodi:open="true"
     sodipodi:arc-type="arc"
     d="m -121.44796,108.64891 a 2.6403668,2.6403668 0 0 1 -3.52467,1.18677 2.6403668,2.6403668 0 0 1 -1.21487,-3.51509 2.6403668,2.6403668 0 0 1 3.50527,-1.2429 2.6403668,2.6403668 0 0 1 1.27085,3.49524"
     transform="scale(-1,1)" />
  <path
     style="fill:#00ff00;fill-rule:evenodd;stroke:#8fb832;stroke-width:2;stroke-miterlimit:5.2;stroke-dasharray:2, 2;stroke-dashoffset:0;stroke-opacity:1"
     d="M 127.02424,120.13203 25.06547,53.107335"
     id="path2954" />
  <path
     style="fill:#00ff00;fill-rule:evenodd;stroke:#3240b8;stroke-width:0.600001;stroke-miterlimit:5.2;stroke-opacity:1"
     id="path3073-87"
     sodipodi:type="arc"
     sodipodi:cx="-89.652939"
     sodipodi:cy="92.915993"
     sodipodi:rx="2.6403668"
     sodipodi:ry="2.6403668"
     sodipodi:start="0.46461072"
     sodipodi:end="0.43267107"
     sodipodi:open="true"
     sodipodi:arc-type="arc"
     d="m -87.292461,94.099075 a 2.6403668,2.6403668 0 0 1 -3.524674,1.186767 2.6403668,2.6403668 0 0 1 -1.214873,-3.515085 2.6403668,2.6403668 0 0 1 3.505272,-1.242902 2.6403668,2.6403668 0 0 1 1.270852,3.495236"
     transform="scale(-1,1)" />
  <path
     style="fill:#00ff00;fill-rule:evenodd;stroke:#3240b8;stroke-width:0.600001;stroke-miterlimit:5.2;stroke-opacity:1"
     id="path3073"
     sodipodi:type="arc"
     sodipodi:cx="-67.727898"
     sodipodi:cy="73.011688"
     sodipodi:rx="2.6403668"
     sodipodi:ry="2.6403668"
     sodipodi:start="0.46461072"
     sodipodi:end="0.43267107"
     sodipodi:open="true"
     sodipodi:arc-type="arc"
     d="m -65.36742,74.19477 a 2.6403668,2.6403668 0 0 1 -3.524674,1.186767 2.6403668,2.6403668 0 0 1 -1.214873,-3.515085 2.6403668,2.6403668 0 0 1 3.505273,-1.242902 2.6403668,2.6403668 0 0 1 1.270851,3.495237"
     transform="scale(-1,1)" />
  <path
     style="fill:#00ff00;fill-rule:evenodd;stroke:#3240b8;stroke-width:0.600001;stroke-miterlimit:5.2;stroke-opacity:1"
     id="path3073-4"
     sodipodi:type="arc"
     sodipodi:cx="-27.425947"
     sodipodi:cy="51.924252"
     sodipodi:rx="2.6403668"
     sodipodi:ry="2.6403668"
     sodipodi:start="0.46461072"
     sodipodi:end="0.43267107"
     sodipodi:open="true"
     sodipodi:arc-type="arc"
     d="m -25.06547,53.107333 a 2.6403668,2.6403668 0 0 1 -3.524673,1.186768 2.6403668,2.6403668 0 0 1 -1.214874,-3.515086 2.6403668,2.6403668 0 0 1 3.505273,-1.242901 2.6403668,2.6403668 0 0 1 1.270851,3.495236"
     transform="scale(-1,1)" />
  <path
     style="fill:#00ff00;fill-rule:evenodd;stroke:#3240b8;stroke-width:0.600001;stroke-miterlimit:5.2;stroke-opacity:1"
     id="path3073-47"
     sodipodi:type="arc"
     sodipodi:cx="-83.965996"
     sodipodi:cy="77.886208"
     sodipodi:rx="2.6403668"
     sodipodi:ry="2.6403668"
     sodipodi:start="0.46461072"
     sodipodi:end="0.43267107"
     sodipodi:open="true"
     sodipodi:arc-type="arc"
     d="m -81.605518,79.069289 a 2.6403668,2.6403668 0 0 1 -3.524674,1.186768 2.6403668,2.6403668 0 0 1 -1.214873,-3.515086 2.6403668,2.6403668 0 0 1 3.505272,-1.242901 2.6403668,2.6403668 0 0 1 1.270852,3.495236"
     transform="scale(-1,1)" />
  <text
     xml:space="preserve"
     style="font-style:italic;font-size:4.9389px;font-family:sans-serif;-inkscape-font-specification:'sans-serif, Italic';fill:#ff00ff;fill-rule:evenodd;stroke:#3240b8;stroke-width:2;stroke-miterlimit:5.2;stroke-dasharray:2, 2;stroke-dashoffset:0;stroke-opacity:1"
     x="13.704938"
     y="26.703669"
     id="text4252"><tspan
       sodipodi:role="line"
       id="tspan4250"
       style="stroke-width:2"
       x="13.704938"
       y="26.703669" /></text>
  <text
     xml:space="preserve"
     style="font-style:italic;font-size:4.9389px;font-family:sans-serif;-inkscape-font-specification:'sans-serif, Italic';fill:#ff00ff;fill-rule:evenodd;stroke:#3240b8;stroke-width:2;stroke-miterlimit:5.2;stroke-dasharray:2, 2;stroke-dashoffset:0;stroke-opacity:1"
     x="12.892522"
     y="25.078825"
     id="text4256"><tspan
       sodipodi:role="line"
       id="tspan4254"
       style="stroke-width:2"
       x="12.892522"
       y="25.078825" /></text>
  <g
     id="g14154"
     style="display:inline"
     transform="translate(-25.291247,-33.009242)">
    <g
       id="g14247">
      <text
         xml:space="preserve"
         style="font-style:italic;font-variant:normal;font-weight:normal;font-stretch:normal;font-size:11.2889px;font-family:sans-serif;-inkscape-font-specification:'sans-serif, Italic';font-variant-ligatures:normal;font-variant-caps:normal;font-variant-numeric:normal;font-variant-east-asian:normal;fill:#000000;fill-rule:evenodd;stroke:#3240b8;stroke-width:0.8;stroke-miterlimit:5.2;stroke-dasharray:none;stroke-dashoffset:0;stroke-opacity:1"
         x="154.33342"
         y="163.68182"
         id="text5101-9"
         inkscape:transform-center-x="0.81242056"
         inkscape:transform-center-y="-2.843472"><tspan
           sodipodi:role="line"
           id="tspan5099-7"
           style="font-style:italic;font-variant:normal;font-weight:normal;font-stretch:normal;font-size:11.2889px;font-family:sans-serif;-inkscape-font-specification:'sans-serif, Italic';font-variant-ligatures:normal;font-variant-caps:normal;font-variant-numeric:normal;font-variant-east-asian:normal;fill:#000000;stroke-width:0.8;stroke-dasharray:none"
           x="154.33342"
           y="163.68182">\huge{$x$}</tspan></text>
      <text
         xml:space="preserve"
         style="font-style:italic;font-variant:normal;font-weight:normal;font-stretch:normal;font-size:11.2889px;font-family:sans-serif;-inkscape-font-specification:'sans-serif, Italic';font-variant-ligatures:normal;font-variant-caps:normal;font-variant-numeric:normal;font-variant-east-asian:normal;fill:#000000;fill-opacity:1;fill-rule:evenodd;stroke:#3240b8;stroke-width:0.8;stroke-miterlimit:5.2;stroke-dasharray:none;stroke-dashoffset:0;stroke-opacity:1"
         x="34.121666"
         y="63.775009"
         id="text5101"><tspan
           sodipodi:role="line"
           id="tspan5099"
           style="font-style:italic;font-variant:normal;font-weight:normal;font-stretch:normal;font-size:11.2889px;font-family:sans-serif;-inkscape-font-specification:'sans-serif, Italic';font-variant-ligatures:normal;font-variant-caps:normal;font-variant-numeric:normal;font-variant-east-asian:normal;fill:#000000;fill-opacity:1;stroke-width:0.8;stroke-dasharray:none"
           x="34.121666"
           y="63.775009">\huge{$y$}</tspan></text>
      <text
         xml:space="preserve"
         style="font-style:italic;font-variant:normal;font-weight:normal;font-stretch:normal;font-size:11.2889px;font-family:sans-serif;-inkscape-font-specification:'sans-serif, Italic';font-variant-ligatures:normal;font-variant-caps:normal;font-variant-numeric:normal;font-variant-east-asian:normal;fill:#000000;fill-rule:evenodd;stroke:#3240b8;stroke-width:0.799999;stroke-miterlimit:5.2;stroke-dasharray:none;stroke-dashoffset:0;stroke-opacity:1"
         x="68.223175"
         y="43.462505"
         id="text5930"><tspan
           sodipodi:role="line"
           id="tspan5928"
           style="font-style:italic;font-variant:normal;font-weight:normal;font-stretch:normal;font-size:11.2889px;font-family:sans-serif;-inkscape-font-specification:'sans-serif, Italic';font-variant-ligatures:normal;font-variant-caps:normal;font-variant-numeric:normal;font-variant-east-asian:normal;fill:#000000;stroke-width:0.8"
           x="68.223175"
           y="43.462505">\huge{$-1 \leq \rho \leq -0.5$}</tspan></text>
      <text
         xml:space="preserve"
         style="font-style:italic;font-variant:normal;font-weight:normal;font-stretch:normal;font-size:11.2889px;font-family:sans-serif;-inkscape-font-specification:'sans-serif, Italic';font-variant-ligatures:normal;font-variant-caps:normal;font-variant-numeric:normal;font-variant-east-asian:normal;fill:#000000;fill-rule:evenodd;stroke:#3240b8;stroke-width:0.799999;stroke-miterlimit:5.2;stroke-dasharray:none;stroke-dashoffset:0;stroke-opacity:1"
         x="91.600464"
         y="66.037674"
         id="text8214"><tspan
           sodipodi:role="line"
           id="tspan8212"
           style="font-style:italic;font-variant:normal;font-weight:normal;font-stretch:normal;font-size:11.2889px;font-family:sans-serif;-inkscape-font-specification:'sans-serif, Italic';font-variant-ligatures:normal;font-variant-caps:normal;font-variant-numeric:normal;font-variant-east-asian:normal;fill:#000000;stroke-width:0.8"
           x="91.600464"
           y="66.037674">\huge{Best fit line}</tspan></text>
    </g>
  </g>
  <path
     style="fill:none;fill-rule:evenodd;stroke:#3240b8;stroke-width:0.2;stroke-miterlimit:5.2;marker-start:url(#EmptyTriangleIn)"
     d="m 109.88572,36.137768 c 0,0 13.95884,12.198708 17.07173,17.574997 3.11289,5.376289 4.44138,10.937906 4.88297,16.35905 0.44159,5.421144 -0.2892,11.054606 -1.97905,15.43599 -1.68985,4.381384 -4.35316,7.446345 -7.21244,10.347971 -2.85928,2.901626 -9.60364,6.905584 -9.60364,6.905584 l -8.76882,2.07906 v 0"
     id="path37824"
     sodipodi:nodetypes="czzzzccc" />
</svg>
