<?xml version="1.0" encoding="UTF-8" standalone="no"?>
<!-- Created with Inkscape (http://www.inkscape.org/) -->

<svg
   width="156.99095mm"
   height="141.96118mm"
   viewBox="0 0 156.99095 141.96118"
   version="1.1"
   id="svg5"
   inkscape:version="1.2 (dc2aedaf03, 2022-05-15)"
   sodipodi:docname="pearsonCC02.svg"
   xmlns:inkscape="http://www.inkscape.org/namespaces/inkscape"
   xmlns:sodipodi="http://sodipodi.sourceforge.net/DTD/sodipodi-0.dtd"
   xmlns="http://www.w3.org/2000/svg"
   xmlns:svg="http://www.w3.org/2000/svg">
  <sodipodi:namedview
     id="namedview7"
     pagecolor="#ffffff"
     bordercolor="#999999"
     borderopacity="1"
     inkscape:showpageshadow="0"
     inkscape:pageopacity="0"
     inkscape:pagecheckerboard="0"
     inkscape:deskcolor="#d1d1d1"
     inkscape:document-units="mm"
     showgrid="false"
     inkscape:zoom="0.92114197"
     inkscape:cx="391.36204"
     inkscape:cy="217.6646"
     inkscape:window-width="1280"
     inkscape:window-height="698"
     inkscape:window-x="-6"
     inkscape:window-y="-6"
     inkscape:window-maximized="1"
     inkscape:current-layer="g14247" />
  <defs
     id="defs2">
    <marker
       style="overflow:visible"
       id="EmptyTriangleIn"
       refX="0"
       refY="0"
       orient="auto-start-reverse"
       inkscape:stockid="EmptyTriangleIn"
       markerWidth="5.8241119"
       markerHeight="6.7330775"
       viewBox="0 0 5.8241121 6.7330776"
       inkscape:isstock="true"
       inkscape:collect="always"
       preserveAspectRatio="xMidYMid">
      <path
         transform="scale(0.5)"
         style="fill:context-fill;fill-rule:evenodd;stroke:context-stroke;stroke-width:2"
         d="M 5.77,0 -2.88,5 V -5 Z"
         id="path153" />
    </marker>
    <marker
       style="overflow:visible"
       id="TriangleStart"
       refX="0"
       refY="0"
       orient="auto-start-reverse"
       inkscape:stockid="TriangleStart"
       markerWidth="5.3244081"
       markerHeight="6.155385"
       viewBox="0 0 5.3244081 6.1553851"
       inkscape:isstock="true"
       inkscape:collect="always"
       preserveAspectRatio="xMidYMid">
      <path
         transform="scale(0.5)"
         style="fill:context-stroke;fill-rule:evenodd;stroke:context-stroke;stroke-width:1pt"
         d="M 5.77,0 -2.88,5 V -5 Z"
         id="path135" />
    </marker>
  </defs>
  <rect
     style="fill:#f9f9f9;fill-rule:evenodd;stroke:#280b0b;stroke-width:0.600001;stroke-miterlimit:5.2"
     id="rect61"
     width="156.39095"
     height="141.36118"
     x="0.30000049"
     y="0.30000049" />
  <path
     style="fill:#ff00ff;fill-rule:evenodd;stroke:#3240b8;stroke-width:0.600001;stroke-miterlimit:5.2;stroke-opacity:1"
     id="path3073-12"
     sodipodi:type="arc"
     sodipodi:cx="116.88235"
     sodipodi:cy="57.885502"
     sodipodi:rx="2.6403668"
     sodipodi:ry="2.6403668"
     sodipodi:start="0.46461072"
     sodipodi:end="0.43267107"
     sodipodi:open="true"
     sodipodi:arc-type="arc"
     d="m 119.24282,59.068584 a 2.6403668,2.6403668 0 0 1 -3.52467,1.186767 2.6403668,2.6403668 0 0 1 -1.21487,-3.515085 2.6403668,2.6403668 0 0 1 3.50527,-1.242902 2.6403668,2.6403668 0 0 1 1.27085,3.495236" />
  <path
     style="fill:#ff00ff;fill-rule:evenodd;stroke:#3240b8;stroke-width:0.600001;stroke-miterlimit:5.2;stroke-opacity:1"
     id="path3073-7"
     sodipodi:type="arc"
     sodipodi:cx="112.51044"
     sodipodi:cy="70.787926"
     sodipodi:rx="2.6403668"
     sodipodi:ry="2.6403668"
     sodipodi:start="0.46461072"
     sodipodi:end="0.43267107"
     sodipodi:open="true"
     sodipodi:arc-type="arc"
     d="m 114.87091,71.971008 a 2.6403668,2.6403668 0 0 1 -3.52467,1.186767 2.6403668,2.6403668 0 0 1 -1.21487,-3.515085 2.6403668,2.6403668 0 0 1 3.50527,-1.242902 2.6403668,2.6403668 0 0 1 1.27085,3.495236" />
  <path
     style="fill:#ff00ff;fill-rule:evenodd;stroke:#3240b8;stroke-width:0.600001;stroke-miterlimit:5.2;stroke-opacity:1"
     id="path3073-1"
     sodipodi:type="arc"
     sodipodi:cx="101.85254"
     sodipodi:cy="58.794323"
     sodipodi:rx="2.6403668"
     sodipodi:ry="2.6403668"
     sodipodi:start="0.46461072"
     sodipodi:end="0.43267107"
     sodipodi:open="true"
     sodipodi:arc-type="arc"
     d="m 104.21302,59.977405 a 2.6403668,2.6403668 0 0 1 -3.52468,1.186767 2.6403668,2.6403668 0 0 1 -1.21487,-3.515085 2.6403668,2.6403668 0 0 1 3.50527,-1.242902 2.6403668,2.6403668 0 0 1 1.27085,3.495236" />
  <path
     style="fill:#ff00ff;fill-rule:evenodd;stroke:#3240b8;stroke-width:0.600001;stroke-miterlimit:5.2;stroke-opacity:1"
     id="path3073-42"
     sodipodi:type="arc"
     sodipodi:cx="105.10222"
     sodipodi:cy="76.261368"
     sodipodi:rx="2.6403668"
     sodipodi:ry="2.6403668"
     sodipodi:start="0.46461072"
     sodipodi:end="0.43267107"
     sodipodi:open="true"
     sodipodi:arc-type="arc"
     d="m 107.4627,77.44445 a 2.6403668,2.6403668 0 0 1 -3.52468,1.186767 2.6403668,2.6403668 0 0 1 -1.21487,-3.515085 2.6403668,2.6403668 0 0 1 3.50527,-1.242902 2.6403668,2.6403668 0 0 1 1.27085,3.495236" />
  <path
     style="fill:#f9f9f9;fill-rule:evenodd;stroke:#280b0b;stroke-width:0.600001;stroke-miterlimit:5.2;marker-start:url(#TriangleStart);marker-end:url(#TriangleStart)"
     d="m 25.078826,23.047777 v 68.649541 28.434712 l 112.520244,0.40621"
     id="path278"
     sodipodi:nodetypes="cccc" />
  <path
     style="fill:#ff00ff;fill-rule:evenodd;stroke:#3240b8;stroke-width:0.600001;stroke-miterlimit:5.2;stroke-opacity:1"
     id="path3073-9"
     sodipodi:type="arc"
     sodipodi:cx="88.447594"
     sodipodi:cy="85.197998"
     sodipodi:rx="2.6403668"
     sodipodi:ry="2.6403668"
     sodipodi:start="0.46461072"
     sodipodi:end="0.43267107"
     sodipodi:open="true"
     sodipodi:arc-type="arc"
     d="m 90.808071,86.38108 a 2.6403668,2.6403668 0 0 1 -3.524673,1.186767 2.6403668,2.6403668 0 0 1 -1.214874,-3.515085 2.6403668,2.6403668 0 0 1 3.505273,-1.242902 2.6403668,2.6403668 0 0 1 1.270851,3.495237" />
  <path
     style="fill:#ff00ff;fill-rule:evenodd;stroke:#3240b8;stroke-width:0.600001;stroke-miterlimit:5.2;stroke-opacity:1"
     id="path3073-3"
     sodipodi:type="arc"
     sodipodi:cx="68.137077"
     sodipodi:cy="94.327332"
     sodipodi:rx="2.6403668"
     sodipodi:ry="2.6403668"
     sodipodi:start="0.46461072"
     sodipodi:end="0.43267107"
     sodipodi:open="true"
     sodipodi:arc-type="arc"
     d="m 70.497555,95.510413 a 2.6403668,2.6403668 0 0 1 -3.524674,1.186768 2.6403668,2.6403668 0 0 1 -1.214873,-3.515086 2.6403668,2.6403668 0 0 1 3.505273,-1.242901 2.6403668,2.6403668 0 0 1 1.270851,3.495236" />
  <path
     style="fill:#ff00ff;fill-rule:evenodd;stroke:#3240b8;stroke-width:0.600001;stroke-miterlimit:5.2;stroke-opacity:1"
     id="path3073-27"
     sodipodi:type="arc"
     sodipodi:cx="78.49543"
     sodipodi:cy="91.387505"
     sodipodi:rx="2.6403668"
     sodipodi:ry="2.6403668"
     sodipodi:start="0.46461072"
     sodipodi:end="0.43267107"
     sodipodi:open="true"
     sodipodi:arc-type="arc"
     d="m 80.855908,92.570586 a 2.6403668,2.6403668 0 0 1 -3.524674,1.186768 2.6403668,2.6403668 0 0 1 -1.214873,-3.515086 2.6403668,2.6403668 0 0 1 3.505272,-1.242901 2.6403668,2.6403668 0 0 1 1.270851,3.495236" />
  <path
     style="fill:#ff00ff;fill-rule:evenodd;stroke:#3240b8;stroke-width:0.600001;stroke-miterlimit:5.2;stroke-opacity:1"
     id="path3073-8"
     sodipodi:type="arc"
     sodipodi:cx="79.637329"
     sodipodi:cy="76.129463"
     sodipodi:rx="2.6403668"
     sodipodi:ry="2.6403668"
     sodipodi:start="0.46461072"
     sodipodi:end="0.43267107"
     sodipodi:open="true"
     sodipodi:arc-type="arc"
     d="m 81.997807,77.312545 a 2.6403668,2.6403668 0 0 1 -3.524674,1.186767 2.6403668,2.6403668 0 0 1 -1.214873,-3.515085 2.6403668,2.6403668 0 0 1 3.505272,-1.242902 2.6403668,2.6403668 0 0 1 1.270851,3.495237" />
  <path
     style="fill:#ff00ff;fill-rule:evenodd;stroke:#3240b8;stroke-width:0.600001;stroke-miterlimit:5.2;stroke-opacity:1"
     id="path3073-2"
     sodipodi:type="arc"
     sodipodi:cx="52.091766"
     sodipodi:cy="91.387505"
     sodipodi:rx="2.6403668"
     sodipodi:ry="2.6403668"
     sodipodi:start="0.46461072"
     sodipodi:end="0.43267107"
     sodipodi:open="true"
     sodipodi:arc-type="arc"
     d="m 54.452244,92.570586 a 2.6403668,2.6403668 0 0 1 -3.524674,1.186768 2.6403668,2.6403668 0 0 1 -1.214873,-3.515086 2.6403668,2.6403668 0 0 1 3.505273,-1.242901 2.6403668,2.6403668 0 0 1 1.270851,3.495236" />
  <path
     style="fill:#ff7f2a;fill-rule:evenodd;stroke:#8fb832;stroke-width:2;stroke-miterlimit:5.2;stroke-dasharray:2, 2;stroke-dashoffset:0;stroke-opacity:1"
     d="M 25.078826,120.13203 127.0376,53.107335"
     id="path2954" />
  <path
     style="fill:#ff00ff;fill-rule:evenodd;stroke:#3240b8;stroke-width:0.600001;stroke-miterlimit:5.2;stroke-opacity:1"
     id="path3073-87"
     sodipodi:type="arc"
     sodipodi:cx="62.45013"
     sodipodi:cy="92.915993"
     sodipodi:rx="2.6403668"
     sodipodi:ry="2.6403668"
     sodipodi:start="0.46461072"
     sodipodi:end="0.43267107"
     sodipodi:open="true"
     sodipodi:arc-type="arc"
     d="m 64.810608,94.099075 a 2.6403668,2.6403668 0 0 1 -3.524674,1.186767 2.6403668,2.6403668 0 0 1 -1.214873,-3.515085 2.6403668,2.6403668 0 0 1 3.505273,-1.242902 2.6403668,2.6403668 0 0 1 1.270851,3.495236" />
  <path
     style="fill:#ff00ff;fill-rule:evenodd;stroke:#3240b8;stroke-width:0.600001;stroke-miterlimit:5.2;stroke-opacity:1"
     id="path3073-91"
     sodipodi:type="arc"
     sodipodi:cx="90.884842"
     sodipodi:cy="73.011688"
     sodipodi:rx="2.6403668"
     sodipodi:ry="2.6403668"
     sodipodi:start="0.46461072"
     sodipodi:end="0.43267107"
     sodipodi:open="true"
     sodipodi:arc-type="arc"
     d="m 93.245319,74.19477 a 2.6403668,2.6403668 0 0 1 -3.524673,1.186767 2.6403668,2.6403668 0 0 1 -1.214873,-3.515085 2.6403668,2.6403668 0 0 1 3.505272,-1.242902 2.6403668,2.6403668 0 0 1 1.270851,3.495237" />
  <path
     style="fill:#ff00ff;fill-rule:evenodd;stroke:#3240b8;stroke-width:0.600001;stroke-miterlimit:5.2;stroke-opacity:1"
     id="path3073"
     sodipodi:type="arc"
     sodipodi:cx="77.276848"
     sodipodi:cy="74.946381"
     sodipodi:rx="2.6403668"
     sodipodi:ry="2.6403668"
     sodipodi:start="0.46461072"
     sodipodi:end="0.43267107"
     sodipodi:open="true"
     sodipodi:arc-type="arc"
     d="m 79.637325,76.129462 a 2.6403668,2.6403668 0 0 1 -3.524673,1.186768 2.6403668,2.6403668 0 0 1 -1.214873,-3.515086 2.6403668,2.6403668 0 0 1 3.505272,-1.242901 2.6403668,2.6403668 0 0 1 1.270851,3.495236" />
  <path
     style="fill:#ff00ff;fill-rule:evenodd;stroke:#3240b8;stroke-width:0.600001;stroke-miterlimit:5.2;stroke-opacity:1"
     id="path3073-4"
     sodipodi:type="arc"
     sodipodi:cx="95.972794"
     sodipodi:cy="63.871952"
     sodipodi:rx="2.6403668"
     sodipodi:ry="2.6403668"
     sodipodi:start="0.46461072"
     sodipodi:end="0.43267107"
     sodipodi:open="true"
     sodipodi:arc-type="arc"
     d="m 98.333271,65.055034 a 2.6403668,2.6403668 0 0 1 -3.524674,1.186767 2.6403668,2.6403668 0 0 1 -1.214873,-3.515085 2.6403668,2.6403668 0 0 1 3.505273,-1.242902 2.6403668,2.6403668 0 0 1 1.270851,3.495237" />
  <path
     style="fill:#ff00ff;fill-rule:evenodd;stroke:#3240b8;stroke-width:0.600001;stroke-miterlimit:5.2;stroke-opacity:1"
     id="path3073-47"
     sodipodi:type="arc"
     sodipodi:cx="68.137077"
     sodipodi:cy="77.886208"
     sodipodi:rx="2.6403668"
     sodipodi:ry="2.6403668"
     sodipodi:start="0.46461072"
     sodipodi:end="0.43267107"
     sodipodi:open="true"
     sodipodi:arc-type="arc"
     d="m 70.497555,79.069289 a 2.6403668,2.6403668 0 0 1 -3.524674,1.186768 2.6403668,2.6403668 0 0 1 -1.214873,-3.515086 2.6403668,2.6403668 0 0 1 3.505273,-1.242901 2.6403668,2.6403668 0 0 1 1.270851,3.495236" />
  <text
     xml:space="preserve"
     style="font-style:italic;font-size:4.9389px;font-family:sans-serif;-inkscape-font-specification:'sans-serif, Italic';fill:#ff00ff;fill-rule:evenodd;stroke:#3240b8;stroke-width:2;stroke-miterlimit:5.2;stroke-dasharray:2, 2;stroke-dashoffset:0;stroke-opacity:1"
     x="13.704938"
     y="26.703669"
     id="text4252"><tspan
       sodipodi:role="line"
       id="tspan4250"
       style="stroke-width:2"
       x="13.704938"
       y="26.703669" /></text>
  <text
     xml:space="preserve"
     style="font-style:italic;font-size:4.9389px;font-family:sans-serif;-inkscape-font-specification:'sans-serif, Italic';fill:#ff00ff;fill-rule:evenodd;stroke:#3240b8;stroke-width:2;stroke-miterlimit:5.2;stroke-dasharray:2, 2;stroke-dashoffset:0;stroke-opacity:1"
     x="12.892522"
     y="25.078825"
     id="text4256"><tspan
       sodipodi:role="line"
       id="tspan4254"
       style="stroke-width:2"
       x="12.892522"
       y="25.078825" /></text>
  <g
     id="g14154"
     style="display:inline"
     transform="translate(-25.291247,-33.009242)">
    <g
       id="g14247">
      <text
         xml:space="preserve"
         style="font-style:italic;font-variant:normal;font-weight:normal;font-stretch:normal;font-size:8.46667px;font-family:sans-serif;-inkscape-font-specification:'sans-serif, Italic';font-variant-ligatures:normal;font-variant-caps:normal;font-variant-numeric:normal;font-variant-east-asian:normal;fill:#000000;fill-rule:evenodd;stroke:#3240b8;stroke-width:0.8;stroke-miterlimit:5.2;stroke-dasharray:none;stroke-dashoffset:0;stroke-opacity:1"
         x="137.28732"
         y="164.25629"
         id="text5101-9"
         inkscape:transform-center-x="0.81242056"
         inkscape:transform-center-y="-2.843472"><tspan
           sodipodi:role="line"
           id="tspan5099-7"
           style="font-style:italic;font-variant:normal;font-weight:normal;font-stretch:normal;font-size:8.46667px;font-family:sans-serif;-inkscape-font-specification:'sans-serif, Italic';font-variant-ligatures:normal;font-variant-caps:normal;font-variant-numeric:normal;font-variant-east-asian:normal;fill:#000000;stroke-width:0.8;stroke-dasharray:none"
           x="137.28732"
           y="164.25629">\huge{$x$}</tspan></text>
      <text
         xml:space="preserve"
         style="font-style:italic;font-variant:normal;font-weight:normal;font-stretch:normal;font-size:8.46667px;font-family:sans-serif;-inkscape-font-specification:'sans-serif, Italic';font-variant-ligatures:normal;font-variant-caps:normal;font-variant-numeric:normal;font-variant-east-asian:normal;fill:#000000;fill-opacity:1;fill-rule:evenodd;stroke:#3240b8;stroke-width:0.8;stroke-miterlimit:5.2;stroke-dasharray:none;stroke-dashoffset:0;stroke-opacity:1"
         x="34.121666"
         y="63.775009"
         id="text5101"><tspan
           sodipodi:role="line"
           id="tspan5099"
           style="font-style:italic;font-variant:normal;font-weight:normal;font-stretch:normal;font-size:8.46667px;font-family:sans-serif;-inkscape-font-specification:'sans-serif, Italic';font-variant-ligatures:normal;font-variant-caps:normal;font-variant-numeric:normal;font-variant-east-asian:normal;fill:#000000;fill-opacity:1;stroke-width:0.8;stroke-dasharray:none"
           x="34.121666"
           y="63.775009">\huge{$y$}</tspan></text>
      <text
         xml:space="preserve"
         style="font-style:italic;font-variant:normal;font-weight:normal;font-stretch:normal;font-size:8.46667px;font-family:sans-serif;-inkscape-font-specification:'sans-serif, Italic';font-variant-ligatures:normal;font-variant-caps:normal;font-variant-numeric:normal;font-variant-east-asian:normal;fill:#000000;fill-rule:evenodd;stroke:#3240b8;stroke-width:0.799999;stroke-miterlimit:5.2;stroke-dasharray:none;stroke-dashoffset:0;stroke-opacity:1"
         x="67.612679"
         y="44.254894"
         id="text5930"><tspan
           sodipodi:role="line"
           id="tspan5928"
           style="font-style:italic;font-variant:normal;font-weight:normal;font-stretch:normal;font-size:8.46667px;font-family:sans-serif;-inkscape-font-specification:'sans-serif, Italic';font-variant-ligatures:normal;font-variant-caps:normal;font-variant-numeric:normal;font-variant-east-asian:normal;fill:#000000;stroke-width:0.8"
           x="67.612679"
           y="44.254894">\huge{$1 \geq \rho \geq 0.5$}</tspan></text>
      <text
         xml:space="preserve"
         style="font-style:italic;font-variant:normal;font-weight:normal;font-stretch:normal;font-size:8.46667px;font-family:sans-serif;-inkscape-font-specification:'sans-serif, Italic';font-variant-ligatures:normal;font-variant-caps:normal;font-variant-numeric:normal;font-variant-east-asian:normal;fill:#000000;fill-rule:evenodd;stroke:#3240b8;stroke-width:0.799999;stroke-miterlimit:5.2;stroke-dasharray:none;stroke-dashoffset:0;stroke-opacity:1"
         x="91.08606"
         y="64.745117"
         id="text8214"><tspan
           sodipodi:role="line"
           id="tspan8212"
           style="font-style:italic;font-variant:normal;font-weight:normal;font-stretch:normal;font-size:8.46667px;font-family:sans-serif;-inkscape-font-specification:'sans-serif, Italic';font-variant-ligatures:normal;font-variant-caps:normal;font-variant-numeric:normal;font-variant-east-asian:normal;fill:#000000;stroke-width:0.8"
           x="91.08606"
           y="64.745117">\huge{Best fit line}</tspan></text>
      <text
         xml:space="preserve"
         style="font-style:italic;font-variant:normal;font-weight:normal;font-stretch:normal;font-size:8.46667px;font-family:sans-serif;-inkscape-font-specification:'sans-serif, Italic';font-variant-ligatures:normal;font-variant-caps:normal;font-variant-numeric:normal;font-variant-east-asian:normal;fill:#000000;fill-opacity:1;fill-rule:evenodd;stroke:#3240b8;stroke-width:0.2;stroke-miterlimit:5.2;stroke-dasharray:none;stroke-dashoffset:0;stroke-opacity:1"
         x="154.33342"
         y="163.68182"
         id="text14817"><tspan
           sodipodi:role="line"
           id="tspan14815"
           style="stroke-width:0.2"
           x="154.33342"
           y="163.68182" /></text>
    </g>
  </g>
  <path
     style="fill:none;fill-rule:evenodd;stroke:#3240b8;stroke-width:0.2;stroke-miterlimit:5.2;stroke-dasharray:none;stroke-dashoffset:0;stroke-opacity:1;marker-end:url(#EmptyTriangleIn)"
     d="m 116.88235,57.885501 c 0,0 4.15753,-11.857738 1.62488,-16.761367 -2.53265,-4.903629 -14.11787,-8.095703 -14.11787,-8.095703"
     id="path12440"
     sodipodi:nodetypes="czc" />
</svg>
